<svg width="18" height="18" viewBox="0 0 18 18" fill="none" xmlns="http://www.w3.org/2000/svg">
<path d="M12.4639 0C12.5058 0 12.5477 0 12.592 0C12.6947 1.2694 12.2102 2.21789 11.6213 2.90476C11.0435 3.58688 10.2523 4.24845 8.97267 4.14807C8.88731 2.89685 9.37262 2.01871 9.96069 1.33342C10.5061 0.69477 11.5059 0.126466 12.4639 0Z" fill="white"/>
<path d="M16.3378 13.2123C16.3378 13.2249 16.3378 13.236 16.3378 13.2479C15.9782 14.337 15.4652 15.2705 14.8392 16.1368C14.2677 16.9233 13.5674 17.9816 12.317 17.9816C11.2365 17.9816 10.5188 17.2868 9.41147 17.2679C8.24008 17.2489 7.5959 17.8488 6.5249 17.9998C6.40238 17.9998 6.27987 17.9998 6.15973 17.9998C5.37327 17.886 4.73857 17.2631 4.27618 16.7019C2.91272 15.0437 1.85911 12.9017 1.66309 10.1605C1.66309 9.89178 1.66309 9.62383 1.66309 9.35509C1.74608 7.39329 2.69931 5.79824 3.96634 5.02522C4.63503 4.61421 5.55427 4.26406 6.57785 4.42056C7.01653 4.48854 7.46469 4.63871 7.85753 4.78731C8.22981 4.93037 8.69536 5.1841 9.13641 5.17066C9.43518 5.16196 9.73238 5.00625 10.0335 4.89639C10.9156 4.57785 11.7803 4.21268 12.9201 4.3842C14.2899 4.59129 15.2621 5.1999 15.8628 6.13891C14.7041 6.87636 13.788 7.98768 13.9445 9.88545C14.0836 11.6093 15.0858 12.6179 16.3378 13.2123Z" fill="white"/>
</svg>
