<svg width="18" height="18" viewBox="0 0 18 18" fill="none" xmlns="http://www.w3.org/2000/svg">
<g clip-path="url(#clip0_1322_1669)">
<path d="M3.98918 10.878L3.36262 13.217L1.07258 13.2654C0.388195 11.996 0 10.5437 0 9.00034C0 7.50793 0.362953 6.10055 1.00631 4.86133H1.0068L3.04559 5.23511L3.93869 7.26166C3.75177 7.80661 3.64989 8.39161 3.64989 9.00034C3.64996 9.661 3.76963 10.294 3.98918 10.878Z" fill="#FBBB00"/>
<path d="M17.8426 7.31885C17.946 7.86328 17.9999 8.42553 17.9999 9.00016C17.9999 9.6445 17.9321 10.273 17.8031 10.8793C17.365 12.9424 16.2202 14.7438 14.6343 16.0187L14.6338 16.0182L12.0659 15.8872L11.7024 13.6184C12.7547 13.0012 13.5771 12.0354 14.0103 10.8793H9.19775V7.31885H14.0805H17.8426Z" fill="#518EF8"/>
<path d="M14.6336 16.0178L14.6341 16.0183C13.0917 17.258 11.1325 17.9998 8.99968 17.9998C5.57227 17.9998 2.59239 16.0841 1.07227 13.2649L3.98886 10.8774C4.74891 12.9059 6.70567 14.3499 8.99968 14.3499C9.98571 14.3499 10.9095 14.0833 11.7021 13.618L14.6336 16.0178Z" fill="#28B446"/>
<path d="M14.7447 2.07197L11.8291 4.45894C11.0087 3.94615 10.039 3.64992 9.00004 3.64992C6.65409 3.64992 4.66073 5.16013 3.93877 7.26131L1.00684 4.86098H1.00635C2.50421 1.97307 5.52168 0 9.00004 0C11.1838 0 13.186 0.777867 14.7447 2.07197Z" fill="#F14336"/>
</g>
<defs>
<clipPath id="clip0_1322_1669">
<rect width="18" height="18" fill="white"/>
</clipPath>
</defs>
</svg>
