<svg width="138" height="89" viewBox="0 0 138 89" fill="none" xmlns="http://www.w3.org/2000/svg">
<path d="M128.586 76.5454V77.5661H129.607V78.5868H128.586V79.6075H123.483V80.6282H128.586V81.6488H129.607V86.7523H128.586V87.773H127.566V88.7936H118.38V87.773H117.359V84.7109H118.38V83.6902H125.524V82.6695H118.38V81.6488H117.359V78.5868H118.38V79.6075H119.4V78.5868H120.421V77.5661H119.4V76.5454H128.586Z" fill="white"/>
<path d="M114.299 77.5661V78.5868H115.32V86.7523H114.299V87.773H113.279V88.7936H105.113V87.773H104.092V86.7523H103.072V78.5868H104.092V79.6075H105.113V78.5868H106.134V77.5661H105.113V76.5454H113.279V77.5661H114.299ZM112.258 84.7109V79.6075H109.196V84.7109H112.258Z" fill="white"/>
<path d="M100.016 76.5454V77.5661H101.036V78.5868H100.016V79.6075H94.9122V80.6282H100.016V81.6488H101.036V86.7523H100.016V87.773H98.995V88.7936H89.8088V87.773H88.7881V84.7109H89.8088V83.6902H96.9536V82.6695H89.8088V81.6488H88.7881V78.5868H89.8088V79.6075H90.8295V78.5868H91.8501V77.5661H90.8295V76.5454H100.016Z" fill="white"/>
<path d="M85.7305 77.5661V78.5868H86.7512V81.6488H85.7305V82.6695H84.7098V83.6902H85.7305V84.7109H86.7512V87.773H85.7305V88.7936H84.7098V87.773H83.6891V86.7523H82.6684V85.7316H81.6477V84.7109H80.627V87.773H79.6064V88.7936H75.5236V87.773H74.5029V77.5661H75.5236V79.6075H76.5443V78.5868H77.565V77.5661H75.5236V76.5454H84.7098V77.5661H85.7305ZM80.627 80.6282H83.6891V79.6075H80.627V80.6282Z" fill="white"/>
<path d="M71.4468 76.5454V77.5661H72.4675V86.7523H71.4468V87.773H70.4261V88.7936H62.2606V87.773H61.2399V86.7523H60.2192V77.5661H61.2399V79.6075H62.2606V78.5868H63.2813V77.5661H61.2399V76.5454H65.3227V77.5661H66.3434V84.7109H68.3847V77.5661H69.4054V76.5454H71.4468Z" fill="white"/>
<path d="M57.1616 76.5454V77.5661H58.1823V78.5868H57.1616V79.6075H52.0582V84.7109H57.1616V85.7316H58.1823V87.773H57.1616V88.7936H47.9755V87.773H46.9548V86.7523H45.9341V78.5868H46.9548V79.6075H47.9755V78.5868H48.9961V77.5661H47.9755V76.5454H57.1616Z" fill="white"/>
<path d="M42.8779 76.5454V77.5661H43.8986V87.773H42.8779V88.7936H40.8366V87.773H39.8159V83.6902H38.7952V82.6695H37.7745V87.773H36.7538V88.7936H32.6711V87.773H31.6504V77.5661H32.6711V79.6075H33.6918V78.5868H34.7124V77.5661H32.6711V76.5454H36.7538V77.5661H37.7745V79.6075H38.7952V80.6282H39.8159V77.5661H40.8366V76.5454H42.8779Z" fill="white"/>
<path d="M28.5923 77.5661V78.5868H29.613V86.7523H28.5923V87.773H27.5716V88.7936H19.4061V87.773H18.3854V86.7523H17.3647V78.5868H18.3854V79.6075H19.4061V78.5868H20.4268V77.5661H19.4061V76.5454H27.5716V77.5661H28.5923ZM26.5509 84.7109V79.6075H23.4889V84.7109H26.5509Z" fill="white"/>
<path d="M14.3002 74.5044V75.5251H15.3209V76.5458H14.3002V77.5665H8.17605V84.7113H14.3002V85.7319H15.3209V87.7733H14.3002V88.794H3.07262V87.7733H2.05194V86.7526H1.03125V76.5458H2.05194V77.5665H3.07262V76.5458H4.09331V75.5251H3.07262V74.5044H14.3002Z" fill="white"/>
<g filter="url(#filter0_d_1322_1634)">
<path d="M60.3537 7.88531L64.9445 7.40161L66.3956 21.1741L61.8048 21.6578L62.2885 26.2486L57.6977 26.7323L58.1814 31.3231L53.5906 31.8068L54.558 40.9884L59.1487 40.5047L59.6324 45.0955L64.2233 44.6118L64.707 49.2026L69.2978 48.7189L70.7489 62.4914L66.158 62.9751L66.6417 67.5659L52.8693 69.017L52.3856 64.4262L47.7948 64.9099L47.3111 60.319L42.7203 60.8027L42.2366 56.2119L33.0549 57.1793L33.5386 61.7701L28.9479 62.2538L29.4316 66.8446L24.8408 67.3283L25.3244 71.9191L11.552 73.3702L11.0683 68.7794L6.47748 69.2631L5.0264 55.4907L9.61723 55.007L9.13353 50.4162L13.7243 49.9325L13.2406 45.3417L17.8315 44.858L16.8641 35.6763L12.2732 36.16L11.7895 31.5692L7.19875 32.0529L6.71506 27.4621L2.12423 27.9458L0.673148 14.1733L5.26397 13.6896L6.23136 22.8713L10.8222 22.3876L10.3385 17.7968L14.9293 17.3131L14.4456 12.7223L5.26397 13.6896L4.78028 9.09882L18.5527 7.64774L19.0364 12.2386L23.6272 11.7549L24.1109 16.3457L28.7017 15.862L29.1854 20.4528L38.367 19.4854L37.8833 14.8946L42.4742 14.4109L41.9905 9.82008L46.5813 9.33639L46.0976 4.74557L59.87 3.29449L60.3537 7.88531Z" fill="white"/>
</g>
<g filter="url(#filter1_d_1322_1634)">
<path d="M130.529 18.9689L135.114 19.5066L131.888 47.0154L127.303 46.4778L126.766 51.0626L122.181 50.525L121.643 55.1098L98.7193 52.4216L97.1064 66.176L92.5216 65.6384L91.9839 70.2232L69.0599 67.535L69.5975 62.9502L65.0127 62.4126L71.4643 7.39487L76.0491 7.9325L74.9739 17.1021L79.5587 17.6398L80.0963 13.055L84.6811 13.5926L85.2187 9.00777L76.0491 7.9325L76.5868 3.34769L127.02 9.26168L126.482 13.8465L131.067 14.3841L130.529 18.9689ZM102.483 20.3279L100.332 38.6672L109.502 39.7425L111.652 21.4032L102.483 20.3279Z" fill="white"/>
</g>
<defs>
<filter id="filter0_d_1322_1634" x="0.000169218" y="3.29443" width="71.422" height="71.422" filterUnits="userSpaceOnUse" color-interpolation-filters="sRGB">
<feFlood flood-opacity="0" result="BackgroundImageFix"/>
<feColorMatrix in="SourceAlpha" type="matrix" values="0 0 0 0 0 0 0 0 0 0 0 0 0 0 0 0 0 0 127 0" result="hardAlpha"/>
<feOffset dy="0.673171"/>
<feGaussianBlur stdDeviation="0.336585"/>
<feComposite in2="hardAlpha" operator="out"/>
<feColorMatrix type="matrix" values="0 0 0 0 0 0 0 0 0 0 0 0 0 0 0 0 0 0 0.25 0"/>
<feBlend mode="normal" in2="BackgroundImageFix" result="effect1_dropShadow_1322_1634"/>
<feBlend mode="normal" in="SourceGraphic" in2="effect1_dropShadow_1322_1634" result="shape"/>
</filter>
<filter id="filter1_d_1322_1634" x="58.1321" y="-9.46522e-05" width="79.4887" height="76.2626" filterUnits="userSpaceOnUse" color-interpolation-filters="sRGB">
<feFlood flood-opacity="0" result="BackgroundImageFix"/>
<feColorMatrix in="SourceAlpha" type="matrix" values="0 0 0 0 0 0 0 0 0 0 0 0 0 0 0 0 0 0 127 0" result="hardAlpha"/>
<feOffset dx="-2.18697" dy="1.34583"/>
<feGaussianBlur stdDeviation="2.34679"/>
<feComposite in2="hardAlpha" operator="out"/>
<feColorMatrix type="matrix" values="0 0 0 0 0 0 0 0 0 0 0 0 0 0 0 0 0 0 0.14 0"/>
<feBlend mode="normal" in2="BackgroundImageFix" result="effect1_dropShadow_1322_1634"/>
<feBlend mode="normal" in="SourceGraphic" in2="effect1_dropShadow_1322_1634" result="shape"/>
</filter>
</defs>
</svg>
